# xmcd CD database file generated by OrangeCD 5.2
#
# Track frame offsets:
#	150
#	13148
#	44489
#	58768
#	76058
#	89332
#	120954
#	142156
#	156792
#	165312
#
# Disc length: 2370 seconds
#
# Revision: 0
# Processed by: cddbd v1.5.1PL2 Copyright (c) Steve Scherf et al.
# Submitted via: OrangeCD 5.2
#
DISCID=7809400a
DTITLE=Various Artist - Blues Treasures
DYEAR=1900
DGENRE=Blues
TTITLE0=Gallows Tree (Gallows Pole) - Odetta
TTITLE1=Mr. Dillard's Store - Lightnin' Hopkins
TTITLE2=All I Got Belongs To You - Big Bill Broonzy
TTITLE3=Rock Me Momma - Sonny Terry
TTITLE4=Trouble In Mind - Lightnin' Hopkins
TTITLE5=Blues For Gamblers - Lightnin' Hopkins/Big Joe Williams
TTITLE6=Got Up One Morning Blues - Big Bill Broonzy
TTITLE7=Treat Everybody Right - Big Bill Broonzy
TTITLE8=Joshua - Odetta
TTITLE9=When The Saint's Go Marching In - Lightnin' Hopkins
EXTD=
EXTT0=
EXTT1=
EXTT2=
EXTT3=
EXTT4=
EXTT5=
EXTT6=
EXTT7=
EXTT8=
EXTT9=
PLAYORDER=
